<?xml version="1.0" encoding="UTF-8" standalone="no"?>
<svg
   version="1.1"
   width="20.472401"
   height="10.3124"
   viewBox="0 0 20.472401 10.3124"
   id="svg1561"
   sodipodi:docname="TX.svg"
   inkscape:version="1.4.2 (f4327f4, 2025-05-13)"
   xmlns:inkscape="http://www.inkscape.org/namespaces/inkscape"
   xmlns:sodipodi="http://sodipodi.sourceforge.net/DTD/sodipodi-0.dtd"
   xmlns="http://www.w3.org/2000/svg"
   xmlns:svg="http://www.w3.org/2000/svg"
   xmlns:rdf="http://www.w3.org/1999/02/22-rdf-syntax-ns#"
   xmlns:cc="http://creativecommons.org/ns#"
   xmlns:dc="http://purl.org/dc/elements/1.1/">
  <sodipodi:namedview
     id="namedview1"
     pagecolor="#ffffff"
     bordercolor="#000000"
     borderopacity="0.25"
     inkscape:showpageshadow="false"
     inkscape:pageopacity="0.0"
     inkscape:pagecheckerboard="0"
     inkscape:deskcolor="#d1d1d1"
     inkscape:document-units="mm"
     showborder="false"
     borderlayer="false"
     inkscape:antialias-rendering="false"
     inkscape:zoom="20.70505"
     inkscape:cx="10.891063"
     inkscape:cy="13.54742"
     inkscape:window-width="1920"
     inkscape:window-height="1009"
     inkscape:window-x="-8"
     inkscape:window-y="-8"
     inkscape:window-maximized="1"
     inkscape:current-layer="svg1561" />
  <defs
     id="defs1561" />
  <title
     id="title1">SVG Image created as Test.svg date 2025/12/17 00:35:57 </title>
  <desc
     id="desc1">Image generated by Eeschema-SVG </desc>
  <path
     d="M 7.6963,2.5967 A 1.2906,1.2906 0 0 0 8.9662,1.3462"
     id="path1115"
     style="fill:none;stroke:#000000;stroke-width:0.1524;stroke-linecap:round;stroke-linejoin:round;stroke-opacity:1" />
  <path
     d="M 7.6963,5.1367 A 1.2906,1.2906 0 0 0 8.9662,3.8862"
     id="path1116"
     style="fill:none;stroke:#000000;stroke-width:0.1524;stroke-linecap:round;stroke-linejoin:round;stroke-opacity:1" />
  <path
     d="M 7.6963,7.6767 A 1.2906,1.2906 0 0 0 8.9662,6.4262"
     id="path1117"
     style="fill:none;stroke:#000000;stroke-width:0.1524;stroke-linecap:round;stroke-linejoin:round;stroke-opacity:1" />
  <path
     d="M 7.6963,10.2167 A 1.2906,1.2906 0 0 0 8.9662,8.9662"
     id="path1118"
     style="fill:none;stroke:#000000;stroke-width:0.1524;stroke-linecap:round;stroke-linejoin:round;stroke-opacity:1" />
  <path
     d="m 8.9662,1.3462 a 1.27,1.27 0 0 0 -1.27,-1.27"
     id="path1119"
     style="fill:none;stroke:#000000;stroke-width:0.1524;stroke-linecap:round;stroke-linejoin:round;stroke-opacity:1" />
  <path
     d="m 8.9662,3.8862 a 1.27,1.27 0 0 0 -1.27,-1.27"
     id="path1120"
     style="fill:none;stroke:#000000;stroke-width:0.1524;stroke-linecap:round;stroke-linejoin:round;stroke-opacity:1" />
  <path
     d="m 8.9662,6.4262 a 1.27,1.27 0 0 0 -1.27,-1.27"
     id="path1121"
     style="fill:none;stroke:#000000;stroke-width:0.1524;stroke-linecap:round;stroke-linejoin:round;stroke-opacity:1" />
  <path
     d="m 8.9662,8.9662 a 1.27,1.27 0 0 0 -1.27,-1.27"
     id="path1122"
     style="fill:none;stroke:#000000;stroke-width:0.1524;stroke-linecap:round;stroke-linejoin:round;stroke-opacity:1" />
  <path
     style="fill:none;stroke:#000000;stroke-width:0.1524;stroke-linecap:round;stroke-linejoin:round;stroke-opacity:1"
     d="m 9.6012,0.0762 v 10.16"
     id="path1123" />
  <path
     style="fill:none;stroke:#000000;stroke-width:0.1524;stroke-linecap:round;stroke-linejoin:round;stroke-opacity:1"
     d="M 10.8712,10.2362 V 0.0762"
     id="path1124" />
  <path
     d="M 12.7761,0.0811 A 1.2253,1.2253 0 0 0 11.5316,1.3462"
     id="path1125"
     style="fill:none;stroke:#000000;stroke-width:0.1524;stroke-linecap:round;stroke-linejoin:round;stroke-opacity:1" />
  <path
     d="M 12.7761,2.6211 A 1.2253,1.2253 0 0 0 11.5316,3.8862"
     id="path1126"
     style="fill:none;stroke:#000000;stroke-width:0.1524;stroke-linecap:round;stroke-linejoin:round;stroke-opacity:1" />
  <path
     d="M 12.7761,5.1611 A 1.2253,1.2253 0 0 0 11.5316,6.4262"
     id="path1127"
     style="fill:none;stroke:#000000;stroke-width:0.1524;stroke-linecap:round;stroke-linejoin:round;stroke-opacity:1" />
  <path
     d="m 11.5316,1.3462 a 1.2446,1.2446 0 0 0 1.2446,1.2446"
     id="path1128"
     style="fill:none;stroke:#000000;stroke-width:0.1524;stroke-linecap:round;stroke-linejoin:round;stroke-opacity:1" />
  <path
     d="m 11.5316,3.8862 a 1.2446,1.2446 0 0 0 1.2446,1.2446"
     id="path1129"
     style="fill:none;stroke:#000000;stroke-width:0.1524;stroke-linecap:round;stroke-linejoin:round;stroke-opacity:1" />
  <path
     d="m 11.5316,6.4262 a 1.2446,1.2446 0 0 0 1.2446,1.2446"
     id="path1130"
     style="fill:none;stroke:#000000;stroke-width:0.1524;stroke-linecap:round;stroke-linejoin:round;stroke-opacity:1" />
  <path
     d="M 12.8016,7.6964 A 1.2299,1.2299 0 0 0 11.557,8.9662"
     id="path1131"
     style="fill:none;stroke:#000000;stroke-width:0.1524;stroke-linecap:round;stroke-linejoin:round;stroke-opacity:1" />
  <path
     d="m 11.5516,8.9662 a 1.2446,1.2446 0 0 0 1.25,1.2446"
     id="path1132"
     style="fill:none;stroke:#000000;stroke-width:0.1524;stroke-linecap:round;stroke-linejoin:round;stroke-opacity:1" />
  <path
     d="m 7.6962,0.0762 h -7.62"
     id="path1133"
     style="fill:none;stroke:#000000;stroke-width:0.1524;stroke-linecap:round;stroke-linejoin:round;stroke-opacity:1" />
  <path
     d="m 7.6962,10.2362 h -7.62"
     id="path1139"
     style="fill:none;stroke:#000000;stroke-width:0.1524;stroke-linecap:round;stroke-linejoin:round;stroke-opacity:1" />
  <path
     d="m 12.7762,0.0762 h 7.62"
     id="path1150"
     style="fill:none;stroke:#000000;stroke-width:0.1524;stroke-linecap:round;stroke-linejoin:round;stroke-opacity:1" />
  <path
     d="m 12.7762,10.2362 h 7.62"
     id="path1154"
     style="fill:none;stroke:#000000;stroke-width:0.1524;stroke-linecap:round;stroke-linejoin:round;stroke-opacity:1" />
  <metadata
     id="metadata1568">
    <rdf:RDF>
      <cc:Work
         rdf:about="">
        <dc:title>SVG Image created as Test.svg date 2025/12/17 00:35:57 </dc:title>
      </cc:Work>
    </rdf:RDF>
  </metadata>
</svg>
